<svg width="181" height="37" viewBox="0 0 181 37" fill="none" xmlns="http://www.w3.org/2000/svg">
<path d="M17.964 22.536H8.532L7.02 27H0.576L9.72 1.728H16.848L25.992 27H19.476L17.964 22.536ZM16.38 17.784L13.248 8.532L10.152 17.784H16.38ZM27.551 16.956C27.551 14.868 27.971 13.044 28.811 11.484C29.675 9.924 30.863 8.724 32.375 7.884C33.911 7.044 35.663 6.624 37.631 6.624C40.151 6.624 42.251 7.284 43.931 8.604C45.635 9.924 46.751 11.784 47.279 14.184H40.727C40.175 12.648 39.107 11.88 37.523 11.88C36.395 11.88 35.495 12.324 34.823 13.212C34.151 14.076 33.815 15.324 33.815 16.956C33.815 18.588 34.151 19.848 34.823 20.736C35.495 21.6 36.395 22.032 37.523 22.032C39.107 22.032 40.175 21.264 40.727 19.728H47.279C46.751 22.08 45.635 23.928 43.931 25.272C42.227 26.616 40.127 27.288 37.631 27.288C35.663 27.288 33.911 26.868 32.375 26.028C30.863 25.188 29.675 23.988 28.811 22.428C27.971 20.868 27.551 19.044 27.551 16.956ZM49.3478 16.92C49.3478 14.856 49.7318 13.044 50.4998 11.484C51.2918 9.924 52.3598 8.724 53.7038 7.884C55.0478 7.044 56.5478 6.624 58.2038 6.624C59.6198 6.624 60.8558 6.912 61.9118 7.488C62.9918 8.064 63.8198 8.82 64.3958 9.756V6.912H70.5518V27H64.3958V24.156C63.7958 25.092 62.9558 25.848 61.8758 26.424C60.8198 27 59.5838 27.288 58.1678 27.288C56.5358 27.288 55.0478 26.868 53.7038 26.028C52.3598 25.164 51.2918 23.952 50.4998 22.392C49.7318 20.808 49.3478 18.984 49.3478 16.92ZM64.3958 16.956C64.3958 15.42 63.9638 14.208 63.0998 13.32C62.2598 12.432 61.2278 11.988 60.0038 11.988C58.7798 11.988 57.7358 12.432 56.8718 13.32C56.0318 14.184 55.6118 15.384 55.6118 16.92C55.6118 18.456 56.0318 19.68 56.8718 20.592C57.7358 21.48 58.7798 21.924 60.0038 21.924C61.2278 21.924 62.2598 21.48 63.0998 20.592C63.9638 19.704 64.3958 18.492 64.3958 16.956ZM73.7814 16.92C73.7814 14.856 74.1654 13.044 74.9334 11.484C75.7254 9.924 76.7934 8.724 78.1374 7.884C79.4814 7.044 80.9814 6.624 82.6374 6.624C83.9574 6.624 85.1574 6.9 86.2374 7.452C87.3414 8.004 88.2054 8.748 88.8294 9.684V0.36H94.9854V27H88.8294V24.12C88.2534 25.08 87.4254 25.848 86.3454 26.424C85.2894 27 84.0534 27.288 82.6374 27.288C80.9814 27.288 79.4814 26.868 78.1374 26.028C76.7934 25.164 75.7254 23.952 74.9334 22.392C74.1654 20.808 73.7814 18.984 73.7814 16.92ZM88.8294 16.956C88.8294 15.42 88.3974 14.208 87.5334 13.32C86.6934 12.432 85.6614 11.988 84.4374 11.988C83.2134 11.988 82.1694 12.432 81.3054 13.32C80.4654 14.184 80.0454 15.384 80.0454 16.92C80.0454 18.456 80.4654 19.68 81.3054 20.592C82.1694 21.48 83.2134 21.924 84.4374 21.924C85.6614 21.924 86.6934 21.48 87.5334 20.592C88.3974 19.704 88.8294 18.492 88.8294 16.956ZM118.375 16.632C118.375 17.208 118.339 17.808 118.267 18.432H104.335C104.431 19.68 104.827 20.64 105.523 21.312C106.243 21.96 107.119 22.284 108.151 22.284C109.687 22.284 110.755 21.636 111.355 20.34H117.907C117.571 21.66 116.959 22.848 116.071 23.904C115.207 24.96 114.115 25.788 112.795 26.388C111.475 26.988 109.999 27.288 108.367 27.288C106.399 27.288 104.647 26.868 103.111 26.028C101.575 25.188 100.375 23.988 99.511 22.428C98.647 20.868 98.215 19.044 98.215 16.956C98.215 14.868 98.635 13.044 99.475 11.484C100.339 9.924 101.539 8.724 103.075 7.884C104.611 7.044 106.375 6.624 108.367 6.624C110.311 6.624 112.039 7.032 113.551 7.848C115.063 8.664 116.239 9.828 117.079 11.34C117.943 12.852 118.375 14.616 118.375 16.632ZM112.075 15.012C112.075 13.956 111.715 13.116 110.995 12.492C110.275 11.868 109.375 11.556 108.295 11.556C107.263 11.556 106.387 11.856 105.667 12.456C104.971 13.056 104.539 13.908 104.371 15.012H112.075ZM147.255 6.696C149.751 6.696 151.731 7.452 153.195 8.964C154.683 10.476 155.427 12.576 155.427 15.264V27H149.307V16.092C149.307 14.796 148.959 13.8 148.263 13.104C147.591 12.384 146.655 12.024 145.455 12.024C144.255 12.024 143.307 12.384 142.611 13.104C141.939 13.8 141.603 14.796 141.603 16.092V27H135.483V16.092C135.483 14.796 135.135 13.8 134.439 13.104C133.767 12.384 132.831 12.024 131.631 12.024C130.431 12.024 129.483 12.384 128.787 13.104C128.115 13.8 127.779 14.796 127.779 16.092V27H121.623V6.912H127.779V9.432C128.403 8.592 129.219 7.932 130.227 7.452C131.235 6.948 132.375 6.696 133.647 6.696C135.159 6.696 136.503 7.02 137.679 7.668C138.879 8.316 139.815 9.24 140.487 10.44C141.183 9.336 142.131 8.436 143.331 7.74C144.531 7.044 145.839 6.696 147.255 6.696ZM180.252 6.912L167.652 36.54H161.028L165.636 26.316L157.464 6.912H164.34L168.984 19.476L173.592 6.912H180.252Z" fill="white"/>
</svg>
